<?xml version="1.0" encoding="UTF-8"?>
<svg id="Calque_1" xmlns="http://www.w3.org/2000/svg" version="1.1" viewBox="0 0 841.89 595.28">
  <!-- Generator: Adobe Illustrator 29.4.0, SVG Export Plug-In . SVG Version: 2.1.0 Build 152)  -->
  <defs>
    <style>
      .st0 {
        fill: #7ba096;
      }

      .st1 {
        fill: #1d1d1b;
      }
    </style>
  </defs>
  <rect class="st1" y="0" width="841.89" height="595.28"/>
  <path class="st0" d="M425.79,536.16c-7.85,4.21-15.96,8.11-24.37,11.5h-.35c-17.89,0-32.43-14.49-32.43-32.38,0-10.29,4.81-19.41,12.26-25.34,7.91-2.03,15.51-4.36,22.75-6.99,37.4-13.53,64.46-34.61,64.46-60.35s-20.47-42.36-42.36-42.36c-10.59,0-21.18,3.55-30.35,11.3-16.27,14.14-59.29,25.44-90.35,25.44-22.35,0-41-5.12-56.3-14.04-6.69-4.16-12.47-8.77-17.53-13.73-25.24-24.53-31.77-57.01-33.09-77.79l-.05-.05c-.3-5.42-.25-10.03-.2-13.53.05-.46.05-.91.05-1.32.05-.91.1-1.77.2-2.63.1-1.98.25-3.04.25-3.04,6.33-64.76,55.64-95.57,99.58-95.57,38.16,0,72.72,23.31,70.64,66.38l-103.02,32.43.1.25c-15,4.76-25.84,18.8-25.84,35.37,0,20.47,16.62,37.09,37.15,37.09,2.28,0,4.46-.2,6.64-.61,2.53-.46,5.02-1.17,7.35-2.18.51-.15.96-.35,1.42-.61l105.86-33.29c40.95-13.38,62.84-32.48,62.84-76.93,0-87.57-79.81-136.98-163.12-136.98-91.06,0-186.38,59.29-186.38,191.3,0,19.31,2.64,38.61,7.91,57.16,1.27,4.66,2.74,9.27,4.46,13.83.05.91.1,1.77.1,2.69,0,17.89-14.49,32.38-32.38,32.38-9.68,0-18.4-4.26-24.27-11-3.09-8.11-5.73-16.42-7.96-24.98-.61-2.18-1.17-4.36-1.67-6.59C25.66,234.54,110.29,97.87,246.75,65.79c136.47-32.08,273.09,52.5,305.22,188.97,26.81,114.02-27.87,228.19-126.18,281.4h0Z"/>
</svg>