<?xml version="1.0" encoding="UTF-8"?>
<svg id="Calque_1" xmlns="http://www.w3.org/2000/svg" version="1.1" viewBox="0 0 841.89 595.28">
  <!-- Generator: Adobe Illustrator 29.4.0, SVG Export Plug-In . SVG Version: 2.1.0 Build 152)  -->
  <defs>
    <style>
      .st0 {
        fill: #1d1d1b;
      }
    </style>
  </defs>
  <g>
    <path class="st0" d="M574.02,377.77c-.44.64-6.53.87-18.27.64-9.6-.21-20.27-.21-23.31,0-5.43,0-5.86-.21-6.3-1.51-.23-.66-.5-2.98-.71-9.25,5.06,6.37,12.89,10.44,21.64,10.44,10.99,0,20.5-6.41,24.96-15.71,1.03-2.13,1.81-4.42,2.24-6.82.09,19.17.3,21.66-.25,22.21Z"/>
    <path class="st0" d="M742.47,228.39c-1.1-1.31-2.18-1.51-23.95-1.95-12.62-.23-23.95-.44-25.03-.23-1.1,0-6.55,0-12.21-.21-22.88-.18-65.29.07-80.66.53-7.17-.89-17.29-1.08-35.75-1.19-34.63,0-36.57,0-37.67,1.31-.64.66-.87,3.48-.87,9.37,0,.87-.02,2.38-.05,4.42,8.5,7.56,15.6,18.27,20.89,32.79l19.99,54.66c1.1,2.98,2.22,5.59,3.39,7.88.62.96,1.15,1.95,1.6,2.95.96,2.06,1.67,4.24,2.08,6.5v-12.76l2.38-.23c1.74-.21,2.84,0,3.48.87,1.53,1.76,6.98,12.21,12.41,23.08,2.84,5.66,5.24,10.67,5.68,11.11.21.66.87,1.74,1.31,2.4,1.51,4.12,4.79,8.27,6.3,8.7,2.18.44,45.94.23,47.04-.44,1.1-.87.66-3.92-1.1-6.09-.87-1.31-1.74-3.05-2.61-4.79-1.08-1.97-2.61-4.81-3.69-6.32-1.1-1.53-2.84-4.58-3.92-6.96-1.1-2.18-2.4-4.58-2.63-5.22-1.74-3.27-12.62-22.65-13.92-24.82l-1.53-2.4,2.2-1.31c8.7-6.53,11.95-11.75,15.02-25.47,1.51-5.68,1.95-21.34.64-27.66-.05-.18-.07-.39-.11-.57,4.08.07,7.76.09,10.72.14l13.05.23-.44,23.93-.87,45.96c-.21,11.98-.43,26.13-.64,31.35-.23,7.63,0,9.57.64,10.01.66.23,10.67.66,22.42.44,20.27,0,21.57,0,22.88-1.31,1.31-1.08,1.51-1.74,1.08-4.15-.21-1.51-.43-12.85-.21-25.24,0-12.41.21-35.72.21-51.82v-28.97l15.69-.21c13.05-.23,15.66-.23,16.53-1.31.87-.87,1.1-3.5,1.33-18.3,0-15.25,0-17.43-1.1-18.73v.03ZM590.14,292.85c-1.74.87-4.79,1.51-9.6,1.74l-6.73.44.44-26.13h6.3c11.34,0,16.79,4.12,16.79,11.98,0,6.09-1.97,9.14-7.19,11.98h-.01Z"/>
  </g>
  <path class="st0" d="M572.16,338.72c-.55-.92-1.08-1.9-1.6-2.95.62.96,1.15,1.95,1.6,2.95Z"/>
  <path class="st0" d="M469.23,395.81c-.09,23.5-35.82,23.5-35.93,0,.11-23.5,35.84-23.5,35.93,0Z"/>
  <path class="st0" d="M481.52,360.59c-2.36.14-4.47-.18-6.34-.89l-9.92-14.02v-.02c-.25-2.4-.05-4.83.66-7.12l15.6,22.05Z"/>
  <path class="st0" d="M488.97,358.74c-1.1.48-2.18.85-3.23,1.15l-17.95-25.4c.57-.94,1.24-1.9,1.99-2.86l19.19,27.11h0Z"/>
  <path class="st0" d="M491.3,357.64c-.55.27-1.08.55-1.6.78l-19.4-27.43c.37-.46.76-.94,1.17-1.4l19.83,28.05Z"/>
  <path class="st0" d="M494.8,355.56c-.48.32-.98.64-1.47.92l-20.24-28.63c.39-.44.8-.85,1.24-1.26l20.47,28.97Z"/>
  <path class="st0" d="M497.69,353.45c-.23.21-.46.39-.71.57-.23.18-.46.34-.69.5l-20.63-29.22c.41-.41.85-.8,1.28-1.19l20.75,29.34Z"/>
  <path class="st0" d="M505.09,344.98c-.85,1.49-1.85,2.95-3.07,4.35l-20.56-29.08c1.31-1.05,2.63-2.11,3.96-3.09l19.67,27.82h0Z"/>
  <path class="st0" d="M506.96,340.9c-.34.96-.76,1.9-1.24,2.84l-19.33-27.34c.73-.53,1.44-1.08,2.15-1.58l18.41,26.08h0Z"/>
  <path class="st0" d="M507.84,338.04c-.11.46-.23.94-.39,1.4l-17.91-25.35c.32-.21.62-.41.92-.64l17.38,24.59h0Z"/>
  <path class="st0" d="M508.73,332.54c-.09,1.31-.27,2.61-.53,3.92l-16.74-23.7c.76-.53,1.49-1.03,2.2-1.51l15.07,21.3h0Z"/>
  <path class="st0" d="M508.8,327.82l-12.82-18.14c.25-.16.48-.32.69-.46l12.02,17.01v.02c.07.5.09,1.03.11,1.56h0Z"/>
  <path class="st0" d="M508.41,323.72l-10.72-15.16c.32-.21.64-.41.94-.6l9.34,13.19v.02c.18.82.32,1.67.44,2.54h0Z"/>
  <path class="st0" d="M507.31,318.11l-7.65-10.81c1.01-.64,1.79-1.12,2.29-1.42l2.38,3.39c.94,2.22,2.08,5.29,2.98,8.84h0Z"/>
  <path class="st0" d="M568.93,350.49c-.11,28.19-42.96,28.19-43.1,0,.14-28.17,42.96-28.17,43.1,0Z"/>
  <path class="st0" d="M491.97,277.08c.34,6.18-11.75,15.07-29.34,23.93-13.24,6.69-23.34,13.05-30.8,19.28-3.18,2.63-5.89,5.27-8.15,7.88-11.68,13.35-12.05,26.36-6.76,40.85.6,1.6,1.24,3.18,1.92,4.69-1.19,2.08,0,4.05-.82,3.62-1.67-1.1-22.9-27.66-25.49-31.37-.46-.64-2.59-3.25-4.72-5.66-1.88-2.61-4.01-5.22-4.49-6.09-.46-.87-1.17-1.97-1.88-2.4-.46-.44-3.78-4.79-7.53-9.78-3.55-4.81-7.33-9.6-8.04-10.47-.71-.64-1.17-1.74-1.17-2.18,0-.21-.48-.87-1.19-1.31-1.4-1.08-1.4.87.25,27.66.23,6.53,1.17,31.12,1.17,37.21,0,3.5-.46,3.94-5.66,4.58-4.49.44-35.86.87-40.81.66-1.6-.11-2.75-.18-3.57-.64-9.53,11.5-21.25,21.23-34.74,28.53-3.69,1.97-7.49,3.8-11.43,5.38h-.16c-8.4,0-15.21-6.8-15.21-15.18,0-4.81,2.24-9.09,5.75-11.86,3.71-.96,7.26-2.06,10.65-3.27,17.54-6.34,30.23-16.24,30.23-28.3s-9.6-19.85-19.85-19.85c-4.97,0-9.94,1.67-14.24,5.29-7.63,6.64-27.78,11.93-42.34,11.93-10.47,0-19.21-2.4-26.38-6.57-3.14-1.95-5.84-4.12-8.22-6.43-11.84-11.5-14.89-26.72-15.5-36.46l-.02-.02c-.16-2.54-.14-4.72-.11-6.34.02-.23.02-.44.02-.62.02-.44.07-.85.11-1.24.05-.94.11-1.42.11-1.42,2.95-30.37,26.08-44.82,46.67-44.82,17.89,0,34.08,10.95,33.11,31.12l-48.3,15.21.05.11c-7.03,2.24-12.11,8.82-12.11,16.58,0,9.6,7.79,17.38,17.4,17.38,1.08,0,2.11-.09,3.11-.27,1.19-.21,2.36-.55,3.46-1.03.23-.07.44-.16.66-.27l49.6-15.62c19.21-6.25,29.47-15.21,29.47-36.05,0-41.04-37.42-64.21-76.46-64.21-42.69,0-87.36,27.8-87.36,89.68,0,9.05,1.24,18.09,3.71,26.79.6,2.18,1.28,4.35,2.08,6.48.02.44.05.82.05,1.26,0,8.38-6.78,15.18-15.18,15.18-4.53,0-8.61-1.99-11.36-5.15-1.47-3.8-2.7-7.69-3.73-11.72-.3-1.01-.55-2.04-.78-3.09-15.05-63.96,24.62-128.01,88.58-143.06,45.64-10.72,91.33,6.39,119.22,40.33,2.2-.55,5.93-.46,12.23-.37,7.08,0,16.74.21,21.69.21,7.79,0,9.43.23,10.85,1.31l1.9,1.31.23,25.92c.46,43.76.23,40.92,1.17,39.41.71-.66,1.42-2.4,2.13-3.71l7.79-11.11c1.88-2.61,3.53-5.22,3.78-5.66.23-.44,1.65-2.61,3.3-4.58,1.65-2.18,4.49-6.32,6.14-8.93,1.88-2.82,4.47-6.09,5.66-7.4,1.42-1.51,3.07-3.48,3.78-5.02,2.36-4.12,8.73-12.85,11.54-15.66,1.19-1.53,2.13-2.61,2.13-2.84,1.42-1.95,1.65-2.61,12.5-2.82,6.14,0,16.99-.23,24.07-.44,8.95-.44,13.19-.23,13.9.21.3.27.57,1.01.76,1.9-3.94.73-7.97,1.67-12.05,2.77-40.28,10.81-74.08,43.97-65.82,66.62,4.51,12.32,19.33,18.25,33.41,13.53.25-.07.48-.16.73-.25,1.9-.69,3.69-1.56,5.34-2.56,10.79-6.43,16.14-18.69,12.18-29.52-.85-2.36-.76-2.59-2.29-4.42l-1.17-1.51-.23-.27c-8.77-13.53,7.58-19.76,18.96-23.47,1.6-.53,3.11-1.01,4.44-1.44,20.36-6.71,34.1,16.56,37.46,29.93h0Z"/>
</svg>