<?xml version="1.0" encoding="UTF-8"?>
<svg id="Calque_1" xmlns="http://www.w3.org/2000/svg" version="1.1" viewBox="0 0 841.89 595.28">
  <!-- Generator: Adobe Illustrator 29.4.0, SVG Export Plug-In . SVG Version: 2.1.0 Build 152)  -->
  <defs>
    <style>
      .st0 {
        fill: #1d1d1b;
      }

      .st1 {
        fill: #057363;
      }
    </style>
  </defs>
  <g>
    <g>
      <path class="st1" d="M552.22,367.11c-.37.55-5.58.74-15.62.55-8.2-.18-17.32-.18-19.93,0-4.64,0-5.01-.18-5.38-1.29-.2-.57-.43-2.54-.61-7.91,4.33,5.44,11.02,8.93,18.5,8.93,9.4,0,17.52-5.48,21.33-13.43.88-1.82,1.55-3.78,1.92-5.83.08,16.38.25,18.52-.22,18.99Z"/>
      <path class="st1" d="M696.2,239.44c-.94-1.12-1.86-1.29-20.47-1.66-10.78-.2-20.47-.37-21.39-.2-.94,0-5.6,0-10.43-.18-19.55-.16-55.8.06-68.94.45-6.13-.76-14.78-.92-30.55-1.02-29.59,0-31.26,0-32.2,1.12-.55.57-.74,2.98-.74,8.01,0,.74-.02,2.04-.04,3.78,7.26,6.46,13.33,15.62,17.85,28.03l17.09,46.72c.94,2.54,1.9,4.78,2.9,6.73.53.82.98,1.66,1.37,2.53.82,1.76,1.43,3.62,1.78,5.56v-10.9l2.04-.2c1.49-.18,2.43,0,2.98.74,1.31,1.51,5.97,10.43,10.61,19.73,2.43,4.83,4.48,9.12,4.85,9.49.18.57.74,1.49,1.12,2.06,1.29,3.52,4.09,7.07,5.38,7.44,1.86.37,39.26.2,40.2-.37.94-.74.57-3.35-.94-5.21-.74-1.12-1.49-2.6-2.23-4.09-.92-1.68-2.23-4.11-3.15-5.4-.94-1.31-2.43-3.91-3.35-5.95-.94-1.86-2.06-3.91-2.25-4.46-1.49-2.8-10.78-19.36-11.9-21.22l-1.31-2.06,1.88-1.12c7.44-5.58,10.22-10.04,12.84-21.77,1.29-4.85,1.66-18.24.55-23.64-.04-.16-.06-.33-.1-.49,3.48.06,6.64.08,9.16.12l11.16.2-.37,20.45-.74,39.28c-.18,10.24-.37,22.33-.55,26.8-.2,6.52,0,8.18.55,8.55.57.2,9.12.57,19.16.37,17.32,0,18.44,0,19.55-1.12,1.12-.92,1.29-1.49.92-3.54-.18-1.29-.37-10.98-.18-21.57,0-10.61.18-30.53.18-44.29v-24.76l13.41-.18c11.16-.2,13.39-.2,14.13-1.12.74-.74.94-2.99,1.14-15.64,0-13.04,0-14.9-.94-16.01ZM566,294.53c-1.49.74-4.09,1.29-8.2,1.49l-5.75.37.37-22.33h5.38c9.69,0,14.35,3.52,14.35,10.24,0,5.21-1.68,7.81-6.15,10.24Z"/>
    </g>
    <path class="st1" d="M550.64,333.74c-.47-.78-.92-1.62-1.37-2.53.53.82.98,1.66,1.37,2.53Z"/>
    <path class="st1" d="M462.66,382.53c-.08,20.08-30.61,20.08-30.71,0,.1-20.08,30.63-20.08,30.71,0Z"/>
    <path class="st1" d="M473.17,352.43c-2.02.12-3.82-.16-5.42-.76l-8.48-11.98v-.02c-.22-2.06-.04-4.13.57-6.09l13.33,18.85Z"/>
    <path class="st1" d="M479.53,350.85c-.94.41-1.86.72-2.76.98l-15.35-21.71c.49-.8,1.06-1.62,1.7-2.45l16.4,23.17Z"/>
    <path class="st1" d="M481.53,349.91c-.47.23-.92.47-1.37.67l-16.58-23.45c.31-.39.65-.8,1-1.19l16.95,23.98Z"/>
    <path class="st1" d="M484.52,348.13c-.41.27-.84.55-1.25.78l-17.3-24.47c.33-.37.69-.72,1.06-1.08l17.5,24.76Z"/>
    <path class="st1" d="M486.99,346.32c-.2.18-.39.33-.61.49-.2.16-.39.29-.59.43l-17.64-24.98c.35-.35.72-.69,1.1-1.02l17.73,25.07Z"/>
    <path class="st1" d="M493.31,339.08c-.72,1.27-1.59,2.52-2.62,3.72l-17.58-24.86c1.12-.9,2.25-1.8,3.39-2.64l16.81,23.78Z"/>
    <path class="st1" d="M494.91,335.6c-.29.82-.65,1.62-1.06,2.43l-16.52-23.37c.63-.45,1.23-.92,1.84-1.35l15.74,22.29Z"/>
    <path class="st1" d="M495.66,333.15c-.1.39-.2.8-.33,1.19l-15.31-21.67c.27-.18.53-.35.78-.55l14.86,21.02Z"/>
    <path class="st1" d="M496.42,328.45c-.08,1.12-.23,2.23-.45,3.35l-14.31-20.26c.65-.45,1.27-.88,1.88-1.29l12.88,18.2Z"/>
    <path class="st1" d="M496.48,324.42l-10.96-15.5c.22-.14.41-.27.59-.39l10.28,14.54v.02c.06.43.08.88.1,1.33Z"/>
    <path class="st1" d="M496.15,320.92l-9.16-12.96c.27-.18.55-.35.8-.51l7.99,11.27v.02c.16.7.27,1.43.37,2.17Z"/>
    <path class="st1" d="M495.21,316.12l-6.54-9.24c.86-.55,1.53-.96,1.96-1.21l2.04,2.9c.8,1.9,1.78,4.52,2.54,7.56Z"/>
    <path class="st1" d="M547.88,343.8c-.1,24.09-36.72,24.09-36.84,0,.12-24.07,36.72-24.07,36.84,0Z"/>
    <path class="st1" d="M482.09,281.05c.29,5.28-10.04,12.88-25.07,20.45-11.31,5.72-19.95,11.16-26.33,16.48-2.72,2.25-5.03,4.5-6.97,6.73-9.98,11.41-10.3,22.53-5.77,34.92.51,1.37,1.06,2.72,1.64,4.01-1.02,1.78,0,3.46-.7,3.09-1.43-.94-19.57-23.64-21.78-26.82-.39-.55-2.21-2.78-4.03-4.83-1.61-2.23-3.43-4.46-3.84-5.21-.39-.74-1-1.68-1.61-2.06-.39-.37-3.23-4.09-6.44-8.36-3.03-4.11-6.26-8.2-6.87-8.94-.61-.55-1-1.49-1-1.86,0-.18-.41-.74-1.02-1.12-1.19-.92-1.19.74.22,23.64.2,5.58,1,26.6,1,31.81,0,2.99-.39,3.37-4.83,3.91-3.84.37-30.65.74-34.88.57-1.37-.1-2.35-.16-3.05-.55-8.14,9.83-18.16,18.14-29.69,24.39-3.15,1.68-6.4,3.25-9.77,4.6h-.14c-7.18,0-13-5.81-13-12.98,0-4.11,1.92-7.77,4.91-10.14,3.17-.82,6.2-1.76,9.1-2.8,14.99-5.42,25.84-13.88,25.84-24.19s-8.2-16.97-16.97-16.97c-4.25,0-8.49,1.43-12.17,4.52-6.52,5.68-23.74,10.2-36.19,10.2-8.94,0-16.42-2.06-22.55-5.62-2.68-1.66-4.99-3.52-7.03-5.5-10.12-9.83-12.72-22.84-13.25-31.16l-.02-.02c-.14-2.17-.12-4.03-.1-5.42.02-.2.02-.37.02-.53.02-.37.06-.72.1-1.06.04-.8.1-1.21.1-1.21,2.52-25.95,22.29-38.3,39.89-38.3,15.29,0,29.12,9.36,28.3,26.6l-41.28,13,.04.1c-6.01,1.92-10.35,7.54-10.35,14.17,0,8.2,6.65,14.86,14.88,14.86.92,0,1.8-.08,2.66-.23,1.02-.18,2.02-.47,2.96-.88.2-.06.37-.14.57-.23l42.4-13.35c16.42-5.34,25.19-13,25.19-30.81,0-35.08-31.98-54.88-65.35-54.88-36.48,0-74.67,23.76-74.67,76.65,0,7.73,1.06,15.46,3.17,22.9.51,1.86,1.1,3.72,1.78,5.54.02.37.04.7.04,1.08,0,7.16-5.79,12.98-12.98,12.98-3.88,0-7.36-1.7-9.71-4.4-1.25-3.25-2.31-6.58-3.19-10.02-.25-.86-.47-1.74-.67-2.64-12.86-54.67,21.04-109.41,75.71-122.27,39.01-9.16,78.06,5.46,101.9,34.47,1.88-.47,5.07-.39,10.45-.31,6.05,0,14.31.18,18.54.18,6.65,0,8.06.2,9.28,1.12l1.62,1.12.2,22.16c.39,37.4.2,34.98,1,33.69.61-.57,1.21-2.06,1.82-3.17l6.65-9.49c1.61-2.23,3.01-4.46,3.23-4.83.2-.37,1.41-2.23,2.82-3.91,1.41-1.86,3.84-5.4,5.25-7.63,1.61-2.41,3.82-5.21,4.83-6.32,1.21-1.29,2.62-2.98,3.23-4.29,2.02-3.52,7.46-10.98,9.86-13.39,1.02-1.31,1.82-2.23,1.82-2.43,1.21-1.66,1.41-2.23,10.69-2.41,5.25,0,14.52-.2,20.57-.37,7.65-.37,11.27-.2,11.88.18.25.23.49.86.65,1.62-3.37.63-6.81,1.43-10.3,2.37-34.43,9.24-63.32,37.58-56.25,56.94,3.86,10.53,16.52,15.6,28.56,11.57.22-.06.41-.14.63-.22,1.62-.59,3.15-1.33,4.56-2.19,9.22-5.5,13.8-15.97,10.41-25.23-.72-2.02-.65-2.21-1.96-3.78l-1-1.29-.2-.23c-7.5-11.57,6.48-16.89,16.21-20.06,1.37-.45,2.66-.86,3.8-1.23,17.4-5.74,29.14,14.15,32.02,25.58Z"/>
  </g>
  <path class="st0" d="M301.23,391.31c-3.15,1.68-6.39,3.25-9.76,4.61h-.14c-7.17,0-12.99-5.81-12.99-12.97,0-4.12,1.93-7.78,4.91-10.15,3.17-.81,6.21-1.75,9.12-2.8,14.98-5.42,25.82-13.87,25.82-24.18s-8.2-16.97-16.97-16.97c-4.24,0-8.49,1.42-12.16,4.53-6.52,5.66-23.75,10.19-36.2,10.19-8.95,0-16.42-2.05-22.55-5.62-2.68-1.66-4.99-3.51-7.02-5.5-10.11-9.83-12.73-22.84-13.26-31.16l-.02-.02c-.12-2.17-.1-4.02-.08-5.42.02-.18.02-.37.02-.53.02-.37.04-.71.08-1.06.04-.79.1-1.22.1-1.22,2.54-25.94,22.29-38.29,39.89-38.29,15.29,0,29.13,9.34,28.3,26.59l-41.27,12.99.04.1c-6.01,1.91-10.35,7.53-10.35,14.17,0,8.2,6.66,14.86,14.88,14.86.91,0,1.79-.08,2.66-.24,1.02-.18,2.01-.47,2.94-.87.2-.06.39-.14.57-.24l42.41-13.34c16.4-5.36,25.17-13.01,25.17-30.82,0-35.08-31.97-54.87-65.35-54.87-36.48,0-74.67,23.75-74.67,76.64,0,7.73,1.06,15.47,3.17,22.9.51,1.87,1.1,3.72,1.79,5.54.02.37.04.71.04,1.08,0,7.17-5.81,12.97-12.97,12.97-3.88,0-7.37-1.71-9.72-4.41-1.24-3.25-2.29-6.58-3.19-10.01-.24-.87-.47-1.75-.67-2.64-12.85-54.67,21.05-109.42,75.72-122.27,54.67-12.85,109.4,21.03,122.27,75.7,10.74,45.68-11.17,91.42-50.55,112.73Z"/>
</svg>