<?xml version="1.0" encoding="UTF-8"?>
<svg id="Calque_1" xmlns="http://www.w3.org/2000/svg" version="1.1" viewBox="0 0 841.89 595.28">
  <!-- Generator: Adobe Illustrator 29.4.0, SVG Export Plug-In . SVG Version: 2.1.0 Build 152)  -->
  <defs>
    <style>
      .st0 {
        fill: #fff;
      }

      .st1 {
        fill: #3c3c3b;
      }
    </style>
  </defs>
  <g>
    <g>
      <path class="st0" d="M588.77,386.56c-.48.7-7.17.96-20.07.7-10.54-.23-22.26-.23-25.61,0-5.96,0-6.44-.23-6.92-1.66-.25-.73-.55-3.27-.78-10.16,5.56,6.99,14.16,11.47,23.77,11.47,12.07,0,22.51-7.04,27.42-17.25,1.13-2.34,1.99-4.85,2.46-7.5.1,21.05.33,23.79-.28,24.4Z"/>
      <path class="st0" d="M773.79,222.49c-1.21-1.43-2.39-1.66-26.31-2.14-13.86-.25-26.31-.48-27.49-.25-1.21,0-7.19,0-13.41-.23-25.13-.2-71.71.08-88.59.58-7.87-.98-18.99-1.18-39.26-1.31-38.03,0-40.17,0-41.38,1.43-.7.73-.96,3.82-.96,10.29,0,.96-.03,2.62-.05,4.85,9.33,8.3,17.13,20.07,22.94,36.02l21.96,60.04c1.21,3.27,2.44,6.14,3.72,8.65.68,1.06,1.26,2.14,1.76,3.24,1.06,2.26,1.84,4.65,2.29,7.14v-14.01l2.62-.25c1.91-.23,3.12,0,3.82.96,1.69,1.94,7.67,13.41,13.63,25.35,3.12,6.21,5.76,11.72,6.24,12.2.23.73.96,1.91,1.43,2.64,1.66,4.53,5.26,9.08,6.92,9.56,2.39.48,50.46.25,51.66-.48,1.21-.96.73-4.3-1.21-6.69-.96-1.43-1.91-3.35-2.87-5.26-1.18-2.16-2.87-5.28-4.05-6.94-1.21-1.69-3.12-5.03-4.3-7.65-1.21-2.39-2.64-5.03-2.89-5.73-1.91-3.6-13.86-24.88-15.29-27.27l-1.69-2.64,2.41-1.43c9.56-7.17,13.13-12.9,16.5-27.97,1.66-6.24,2.14-23.44.7-30.38-.05-.2-.08-.43-.13-.63,4.48.08,8.53.1,11.77.15l14.34.25-.48,26.28-.96,50.48c-.23,13.15-.48,28.7-.7,34.43-.25,8.38,0,10.51.7,10.99.73.25,11.72.73,24.62.48,22.26,0,23.69,0,25.13-1.43,1.43-1.18,1.66-1.91,1.18-4.55-.23-1.66-.48-14.11-.23-27.72,0-13.63.23-39.24.23-56.92v-31.82l17.23-.23c14.34-.25,17.2-.25,18.16-1.43.96-.96,1.21-3.85,1.46-20.1,0-16.75,0-19.14-1.21-20.57ZM606.48,293.3c-1.91.96-5.26,1.66-10.54,1.91l-7.39.48.48-28.7h6.92c12.45,0,18.44,4.53,18.44,13.15,0,6.69-2.16,10.04-7.9,13.15Z"/>
    </g>
    <path class="st0" d="M586.73,343.68c-.6-1.01-1.18-2.09-1.76-3.24.68,1.06,1.26,2.14,1.76,3.24Z"/>
    <path class="st0" d="M473.67,406.38c-.1,25.81-39.34,25.81-39.46,0,.13-25.81,39.36-25.81,39.46,0Z"/>
    <path class="st0" d="M487.18,367.7c-2.59.15-4.9-.2-6.97-.98l-10.89-15.39v-.03c-.28-2.64-.05-5.31.73-7.82l17.13,24.22Z"/>
    <path class="st0" d="M495.35,365.66c-1.21.53-2.39.93-3.55,1.26l-19.72-27.89c.63-1.03,1.36-2.09,2.19-3.14l21.08,29.78Z"/>
    <path class="st0" d="M497.92,364.45c-.6.3-1.18.6-1.76.86l-21.3-30.13c.4-.5.83-1.03,1.28-1.53l21.78,30.81Z"/>
    <path class="st0" d="M501.77,362.16c-.53.35-1.08.7-1.61,1.01l-22.23-31.44c.43-.48.88-.93,1.36-1.38l22.49,31.82Z"/>
    <path class="st0" d="M504.94,359.85c-.25.23-.5.43-.78.63-.25.2-.5.38-.75.55l-22.66-32.09c.45-.45.93-.88,1.41-1.31l22.79,32.22Z"/>
    <path class="st0" d="M513.06,350.54c-.93,1.63-2.04,3.24-3.37,4.78l-22.59-31.94c1.43-1.16,2.89-2.31,4.35-3.4l21.61,30.56Z"/>
    <path class="st0" d="M515.12,346.07c-.38,1.06-.83,2.09-1.36,3.12l-21.23-30.03c.8-.58,1.58-1.18,2.36-1.74l20.22,28.65Z"/>
    <path class="st0" d="M516.08,342.92c-.13.5-.25,1.03-.43,1.53l-19.67-27.84c.35-.23.68-.45,1.01-.7l19.09,27.01Z"/>
    <path class="st0" d="M517.06,336.89c-.1,1.43-.3,2.87-.58,4.3l-18.39-26.03c.83-.58,1.63-1.13,2.41-1.66l16.55,23.39Z"/>
    <path class="st0" d="M517.13,331.7l-14.09-19.92c.28-.18.53-.35.75-.5l13.21,18.69v.03c.08.55.1,1.13.13,1.71Z"/>
    <path class="st0" d="M516.71,327.2l-11.77-16.65c.35-.23.7-.45,1.03-.65l10.26,14.49v.03c.2.91.35,1.84.48,2.79Z"/>
    <path class="st0" d="M515.5,321.04l-8.4-11.87c1.11-.7,1.96-1.23,2.52-1.56l2.62,3.72c1.03,2.44,2.29,5.81,3.27,9.71Z"/>
    <path class="st0" d="M583.19,356.61c-.13,30.96-47.19,30.96-47.34,0,.15-30.94,47.19-30.94,47.34,0Z"/>
    <path class="st0" d="M498.65,275.97c.38,6.79-12.9,16.55-32.22,26.28-14.54,7.34-25.63,14.34-33.83,21.18-3.5,2.89-6.46,5.79-8.95,8.65-12.83,14.66-13.23,28.95-7.42,44.87.65,1.76,1.36,3.5,2.11,5.16-1.31,2.29,0,4.45-.91,3.97-1.84-1.21-25.15-30.38-27.99-34.46-.5-.7-2.84-3.57-5.18-6.21-2.06-2.87-4.4-5.73-4.93-6.69-.5-.96-1.28-2.16-2.06-2.64-.5-.48-4.15-5.26-8.28-10.74-3.9-5.28-8.05-10.54-8.83-11.49-.78-.7-1.28-1.91-1.28-2.39,0-.23-.53-.96-1.31-1.43-1.53-1.18-1.53.96.28,30.38.25,7.17,1.28,34.18,1.28,40.87,0,3.85-.5,4.33-6.21,5.03-4.93.48-39.39.96-44.82.73-1.76-.13-3.02-.2-3.92-.7-10.46,12.63-23.34,23.32-38.16,31.34-4.05,2.16-8.22,4.18-12.55,5.91h-.18c-9.23,0-16.7-7.47-16.7-16.68,0-5.28,2.46-9.99,6.31-13.03,4.07-1.06,7.97-2.26,11.7-3.6,19.27-6.97,33.2-17.83,33.2-31.09s-10.54-21.81-21.81-21.81c-5.46,0-10.92,1.84-15.64,5.81-8.38,7.29-30.51,13.1-46.51,13.1-11.49,0-21.1-2.64-28.98-7.22-3.45-2.14-6.41-4.53-9.03-7.07-13-12.63-16.35-29.35-17.03-40.04l-.03-.03c-.18-2.79-.15-5.18-.13-6.97.03-.25.03-.48.03-.68.03-.48.08-.93.13-1.36.05-1.03.13-1.56.13-1.56,3.24-33.35,28.65-49.22,51.26-49.22,19.64,0,37.43,12.02,36.37,34.18l-53.05,16.7.05.13c-7.72,2.46-13.31,9.68-13.31,18.21,0,10.54,8.55,19.09,19.12,19.09,1.18,0,2.31-.1,3.42-.3,1.31-.23,2.59-.6,3.8-1.13.25-.08.48-.18.73-.3l54.48-17.15c21.1-6.87,32.37-16.7,32.37-39.59,0-45.07-41.1-70.53-83.98-70.53-46.88,0-95.96,30.54-95.96,98.5,0,9.94,1.36,19.87,4.07,29.43.65,2.39,1.41,4.78,2.29,7.12.03.48.05.91.05,1.38,0,9.21-7.45,16.68-16.68,16.68-4.98,0-9.46-2.19-12.48-5.66-1.61-4.18-2.97-8.45-4.1-12.88-.33-1.11-.6-2.24-.86-3.4-16.53-70.25,27.04-140.6,97.29-157.13,50.13-11.77,100.31,7.02,130.94,44.29,2.41-.6,6.51-.5,13.43-.4,7.77,0,18.39.23,23.82.23,8.55,0,10.36.25,11.92,1.43l2.09,1.43.25,28.47c.5,48.07.25,44.95,1.28,43.29.78-.73,1.56-2.64,2.34-4.07l8.55-12.2c2.06-2.87,3.87-5.73,4.15-6.21.25-.48,1.81-2.87,3.62-5.03,1.81-2.39,4.93-6.94,6.74-9.81,2.06-3.09,4.9-6.69,6.21-8.12,1.56-1.66,3.37-3.82,4.15-5.51,2.59-4.53,9.58-14.11,12.68-17.2,1.31-1.69,2.34-2.87,2.34-3.12,1.56-2.14,1.81-2.87,13.73-3.09,6.74,0,18.66-.25,26.44-.48,9.83-.48,14.49-.25,15.27.23.33.3.63,1.11.83,2.09-4.33.8-8.75,1.84-13.23,3.04-44.24,11.87-81.37,48.29-72.29,73.17,4.96,13.53,21.23,20.05,36.7,14.87.28-.08.53-.18.8-.28,2.09-.75,4.05-1.71,5.86-2.82,11.85-7.07,17.73-20.52,13.38-32.42-.93-2.59-.83-2.84-2.52-4.85l-1.28-1.66-.25-.3c-9.63-14.87,8.33-21.71,20.83-25.78,1.76-.58,3.42-1.11,4.88-1.58,22.36-7.37,37.45,18.19,41.15,32.87Z"/>
  </g>
  <path class="st1" d="M266.23,417.66c-4.04,2.17-8.22,4.17-12.55,5.92h-.18c-9.21,0-16.7-7.46-16.7-16.67,0-5.3,2.48-9.99,6.31-13.04,4.07-1.04,7.98-2.24,11.71-3.6,19.25-6.97,33.18-17.82,33.18-31.07s-10.54-21.81-21.81-21.81c-5.45,0-10.9,1.83-15.63,5.82-8.37,7.28-30.52,13.1-46.52,13.1-11.5,0-21.11-2.63-28.98-7.23-3.44-2.14-6.42-4.51-9.03-7.07-12.99-12.63-16.36-29.35-17.04-40.05l-.03-.03c-.16-2.79-.13-5.17-.1-6.97.03-.23.03-.47.03-.68.03-.47.05-.91.1-1.36.05-1.02.13-1.57.13-1.57,3.26-33.34,28.64-49.2,51.26-49.2,19.64,0,37.44,12,36.37,34.18l-53.04,16.7.05.13c-7.72,2.45-13.31,9.68-13.31,18.21,0,10.54,8.56,19.1,19.12,19.1,1.17,0,2.3-.1,3.42-.31,1.3-.23,2.58-.6,3.78-1.12.26-.08.5-.18.73-.31l54.5-17.14c21.08-6.89,32.35-16.72,32.35-39.6,0-45.08-41.09-70.52-83.98-70.52-46.88,0-95.95,30.52-95.95,98.48,0,9.94,1.36,19.88,4.07,29.43.65,2.4,1.41,4.77,2.3,7.12.03.47.05.91.05,1.38,0,9.21-7.46,16.67-16.67,16.67-4.98,0-9.47-2.19-12.5-5.66-1.59-4.17-2.95-8.45-4.1-12.86-.31-1.12-.6-2.24-.86-3.39-16.51-70.26,27.05-140.62,97.31-157.13,70.26-16.51,140.59,27.03,157.13,97.28,13.8,58.7-14.35,117.48-64.96,144.87Z"/>
</svg>